<?xml version="1.0" standalone="no"?>
<!DOCTYPE svg PUBLIC "-//W3C//DTD SVG 20010904//EN"
 "http://www.w3.org/TR/2001/REC-SVG-20010904/DTD/svg10.dtd">
<svg version="1.0" xmlns="http://www.w3.org/2000/svg"
 width="70.000000pt" height="70.000000pt" viewBox="0 0 70.000000 70.000000"
 preserveAspectRatio="xMidYMid meet">
<metadata>
Created by potrace 1.11, written by Peter Selinger 2001-2013
</metadata>
<g transform="translate(0.000000,70.000000) scale(0.100000,-0.100000)"
fill="#000000" stroke="none">
<path d="M193 672 c-48 -5 -61 -33 -57 -126 2 -49 9 -87 19 -102 8 -13 11 -24
6 -24 -16 0 -70 -63 -81 -94 -5 -17 -11 -76 -13 -131 l-4 -100 30 -32 c17 -18
36 -33 41 -33 6 0 5 4 -3 9 -9 6 -4 8 15 8 16 0 23 -2 17 -4 -7 -3 -13 -9 -13
-14 0 -6 5 -7 11 -3 6 3 16 0 21 -7 7 -10 9 -8 5 8 -4 19 -2 20 13 10 10 -6
17 -14 15 -17 -2 -4 6 -6 18 -5 24 2 26 20 3 20 -23 0 -27 11 -6 12 11 1 22
-2 25 -8 10 -14 51 -11 65 6 11 13 10 18 -6 30 -16 13 -17 14 -1 9 19 -7 24
12 5 19 -8 3 -7 6 4 6 9 1 20 7 24 14 4 6 4 9 -1 5 -5 -5 -13 2 -20 15 -9 17
-8 25 4 37 8 8 17 13 19 12 3 -2 9 2 14 10 6 9 8 5 4 -12 -3 -14 -3 -19 0 -12
3 6 10 10 14 7 5 -3 12 0 16 6 4 8 3 9 -4 5 -7 -4 -12 -2 -12 3 0 6 9 11 21
11 12 0 18 -4 13 -11 -4 -7 -1 -10 7 -7 8 3 13 14 11 24 -2 14 -1 16 6 6 5 -8
18 -12 28 -11 11 2 24 0 31 -4 8 -5 11 -1 8 15 -4 22 -4 22 10 4 13 -17 15
-17 15 -4 0 9 5 20 12 24 8 5 9 2 5 -10 -6 -14 -4 -15 15 -5 21 11 21 12 3 25
-10 8 -15 14 -9 15 5 0 17 2 26 4 11 2 15 -2 12 -13 -4 -13 -3 -13 6 1 7 10 9
21 6 24 -3 3 1 12 9 20 10 9 15 35 15 69 0 36 4 54 13 54 9 0 8 3 -2 9 -8 5
-10 14 -5 22 6 10 3 10 -11 -1 -10 -8 -16 -10 -12 -3 4 6 3 14 -2 18 -6 3 -8
12 -4 20 3 8 0 15 -7 15 -6 0 -9 4 -6 8 3 5 -4 14 -14 22 -10 8 -17 17 -14 22
3 4 1 8 -5 8 -6 0 -27 11 -47 25 -65 44 -236 85 -321 77z m427 -332 c0 -5 -5
-10 -11 -10 -5 0 -7 5 -4 10 3 6 8 10 11 10 2 0 4 -4 4 -10z m-300 -284 c0 -3
-4 -8 -10 -11 -5 -3 -10 -1 -10 4 0 6 5 11 10 11 6 0 10 -2 10 -4z"/>
<path d="M475 200 c-3 -5 -1 -10 4 -10 6 0 11 5 11 10 0 6 -2 10 -4 10 -3 0
-8 -4 -11 -10z"/>
<path d="M336 173 c-4 -9 -3 -20 2 -25 4 -4 9 4 10 17 2 29 -3 32 -12 8z"/>
</g>
</svg>
